<?xml version="1.0" standalone="no"?>
<!DOCTYPE svg PUBLIC "-//W3C//DTD SVG 20010904//EN"
 "http://www.w3.org/TR/2001/REC-SVG-20010904/DTD/svg10.dtd">
<svg version="1.0" xmlns="http://www.w3.org/2000/svg"
 width="480.000000pt" height="480.000000pt" viewBox="0 0 480.000000 480.000000"
 preserveAspectRatio="xMidYMid meet">
<metadata>
Created by potrace 1.14, written by Peter Selinger 2001-2017
</metadata>
<g transform="translate(0.000000,480.000000) scale(0.100000,-0.100000)"
fill="#000000" stroke="none">
<path d="M2210 4796 c-3 -2 -38 -7 -79 -10 -41 -4 -77 -9 -81 -11 -4 -3 -27
-6 -51 -9 -24 -2 -82 -14 -129 -26 -47 -12 -92 -23 -100 -25 -31 -7 -176 -58
-202 -71 -15 -8 -29 -14 -30 -13 -15 6 -253 -114 -376 -190 -80 -49 -285 -197
-327 -237 -11 -11 -38 -34 -60 -53 -92 -77 -231 -219 -369 -375 -24 -27 -87
-120 -120 -177 -57 -97 -158 -324 -170 -382 -2 -6 -5 -19 -8 -27 -9 -25 -30
-103 -35 -130 -2 -14 -8 -44 -13 -66 -36 -160 -34 -491 4 -652 8 -34 11 -62 8
-62 -3 0 -1 -5 6 -12 7 -7 12 -19 12 -28 0 -35 65 -211 121 -328 95 -198 184
-330 334 -496 6 -6 55 -60 110 -121 100 -111 469 -484 580 -585 182 -167 388
-330 580 -458 112 -75 355 -202 386 -202 10 0 20 -4 23 -9 3 -5 23 -12 43 -16
21 -5 45 -10 53 -12 48 -13 128 -10 188 8 37 11 76 21 87 24 40 9 282 136 375
196 94 61 216 149 276 199 17 14 48 39 69 55 22 17 49 39 62 50 12 11 45 40
74 65 125 108 187 167 399 379 203 204 467 491 546 596 124 164 269 463 315
649 5 23 11 46 13 51 5 18 25 119 32 160 9 58 10 369 1 443 -4 34 -11 81 -16
105 -6 23 -12 55 -15 70 -17 95 -82 278 -147 412 -40 84 -130 238 -149 255 -3
3 -23 28 -45 55 -51 64 -309 324 -400 402 -91 78 -238 186 -344 253 -190 118
-482 246 -651 284 -8 2 -33 9 -55 14 -54 15 -127 29 -250 48 -48 7 -469 17
-475 10z"/>
</g>
</svg>
